<svg xmlns="http://www.w3.org/2000/svg" version="1.1" xmlns:xlink="http://www.w3.org/1999/xlink" xmlns:svgjs="http://svgjs.dev/svgjs" viewBox="0 0 1422 800" opacity="0.54"><defs><linearGradient x1="50%" y1="0%" x2="50%" y2="100%" id="ssscribble-grad"><stop stop-color="hsl(206, 75%, 49%)" stop-opacity="1" offset="0%"></stop><stop stop-color="hsl(331, 90%, 56%)" stop-opacity="1" offset="100%"></stop></linearGradient></defs><g fill="none" stroke-width="1" stroke="url(#ssscribble-grad)" stroke-linecap="round"><path d="M1845.65 237.43C1756.14 254.74 1650.04 271.38 1568.82 287.43 1543.38 303.58 1582.35 319.35 1669.21 334.95 1771.02 350.94 1847.88 367.17 1871.21 383.98 1832.72 401.68 1745.97 420.52 1642.01 440.96 1518.16 486.17 1607.54 541.2 1781.45 608.6 1819.49 682.95 1666.57 767.5 1492.95 856.92 1477.57 937.69 1617.36 1005.27 1744 1046.95 1718.13 1056.28 1554.13 1030.9 1398.06 976.8 1372.1 918.54 1476.48 873.75 1599.58 869.02 1632.8 920.3 1538.13 1022.99 1379.76 1153.12 1248.32 1265.44 1212.9 1322.49 1267.65 1300.23 1366.84 1217.33 1437.75 1118.24 1440.42 1066.36 1370.68 1105.99 1253.79 1228.21 1130.26 1375.06 1025.45 1463.79 963.64 1444.92 942.59 1333.13 955.98 1215.14 985.19 1180.19 1013.88 1267.89 1044.28 1454.41 1005.26 1244.01 982.19 1237.27 965.69 1281.7 948.52 1353.1 931.09 1435.63 913.48 1510.21 895.95 1559.4 878.64 1571.05 861.33 1542.41 844.45 1480.37 827.86 1400 811.1 1320.03 794.3 1258.83 777.08 1229.76 759.19 1238.92 740.23 1283 719.63 1350.93 697.61 1427.8 673.14 1495.19 645.61 1538.17 584.48 1521.66 508.26 1388.48 417.36 1239.78 325.85 1179.99 235.15 1242.57 161.77 1368.47 122.82 1463.77 126.12 1453.86 174.09 1343.26 240.77 1194.4 302.47 1090.49 318.84 1077.43 262.81 1149.75 140.37 1252.07 -8.34 1321.05 -112.63 1319.39 -124.75 1240.64 -38.69 1117.78 74.3 991.45 125.76 904.35 51.65 873.37 -112.32 896.96 -255.25 952.57 -265.33 1011.85 -145.31 1057.89 -14.86 1069.41 -19.87 1044.6 -177.4 987.91 -345.39 909.46 -355.4 822.73 -207.16 731.8 -76.77 649.81 -134.35 580.46 -327.8 520.23 -433.71 472.56 -323.22 433.87 -185.51 408.89 -180.63 364.59 -326.42 343.27 -416.71 329.36 -458.27 314.86 -434.56 299.55 -355.08 284.33 -249.85 268.1 -160.34 250.79 -123.11 233.48 -152.15 215.29 -234.84 196.32 -339.18 177.45 -423.53 157.98 -455.78 138.17 -424.27 118.74 -340.55 99.35 -235.81 80.37 -147.42 62.27 -106.48 45.18 -125.44 29.59 -357.09 -5.24 -104.26 0.71 -154.41 41.88 -316.41 68.62 -349.32 88.57 -212.67 88.42 -33.89 56.39 24.82 -10.29 -66.22 -109.68 -206.28 -222.33 -252.24 -329.47 -159.79 -402.61 8.58 -421.18 135.82 -381.64 153.41 -300.69 70.07 -223.2 -36.75 -187.65 -89.1 -226.85 -52.89 -336.7 59.79 -477.57 197.05 -585.95 314.2 -608.96 373.48 -538.61 375.11 -420.63 331.48 -340.9 274.65 -359.18 230.19 -479.85 205.32 -631.13 213.52 -716.27 248.68 -676.04 305.08 -546.89 372.57 -430.23 441.07 -427.05 477.02 -476.7 511.4 -549.96 543.73 -631.91 576.2 -704.92 606.24 -753.27 633.74 -765.88 661.14 -740.25 686 -681.65 708.31 -603.42 730.58 -524.79 750.38 -463.6 767.69 -434.95 785 -446.57 799.62 -494.87 811.55 -567.71 823.43 -648.5 832.54 -717.32 838.86 -758.35 845.08 -762.84 848.5 -729.33 849.24 -665.63 849.39 -545.96 840.49 -463.71 845.21 -647.89 872.85 -716.08 926.13 -658.6 1010.99 -515.25 1115.45 -378.06 1230.79 -330.96 1331.27 -388.8 1386.5 -504.76 1382.43 -593.45 1318.65 -597.05 1234.75 -509.13 1173.58 -371.49 1186.89 -247.71 1288.75 -184.55 1443.12 -198.37 1571.85 -265.3 1599.66 -350.06 1515.66 -405.22 1388.16 -406.98 1336.55 -352.72 1421.04 -256.41 1597.14 -144.79 1724.27 -37.32 1699.13 43.25 1551.24 90.76 1475.99 101.41 1780.75 35.16 1569.84 12.09 1513.69 7.5 1659.28 16.6 1839.77 36.68 1865.43 48.89 1830.41 62.98 1747.11 78.48 1647.45 94.87 1567.97 112.12 1539.85 129.83 1575.5 147.95 1662.42 166.16 1768.49 184.19 1852.93 202.33 1882.88 220.1 1845.69 237.42Q1845.65 237.43 1845.65 237.43" opacity="0.82"></path><path d="M1786.65 372.77C1602.85 405.35 1484.7 445.44 1575.09 492.7 1757.74 539.98 1803.42 594.17 1657.75 653.89 1486.61 711.57 1478.11 770.97 1625.87 827.37 1741.97 890.87 1416.05 910.27 1551.9 858.08 1673.54 816.05 1663.2 779.32 1526.47 764.82 1363.44 787.86 1290 851.8 1337.87 952.79 1456.85 1067.82 1546.22 1172.52 1541.5 1235.37 1440.03 1237.64 1294.5 1180.79 1173.69 1090.14 1119.91 1015.85 1142.2 996.83 1209.25 1057.31 1287.59 1179.64 1333.23 1314.11 1329.96 1396.22 1278.9 1385.89 1192.99 1292.02 1094.25 1173.94 992.48 1114.93 907.13 1159.46 842.5 1291.36 795 1430.11 764.62 1487.04 743.85 1422.62 731.57 1287.54 719.48 1181.36 702.8 1190.01 687.61 1313.07 664.39 1458.68 631.8 1512.05 599.22 1429.97 558.04 1278.68 509.77 1176.6 462.98 1199.23 412.53 1322.91 363.35 1449.46 322.67 1485.96 292.69 1402.23 281.07 1256.06 286.58 1140.46 314.05 1124.38 359.36 1205.4 401.62 1326.11 432.47 1402.25 430.03 1385.99 379.8 1282.98 282.21 1144.75 153.65 1036.28 36.38 1000.03 -34.39 1041.08 -27.24 1125.66 46.94 1211.42 147.72 1251.18 206.48 1227.49 168.5 1146.06 38.46 1032.49 -118.99 919.72 -66.82 817.91 -286.4 935.76 -183.98 933.86 -38.77 905.87 -25.51 860.99 -177.23 806.41 -343.39 743.2 -350.45 679.51 -191.88 619.51 -58.78 558.58 -114.06 504.23 -303.15 457.22 -399.99 410.53 -285.14 370.85 -101.34 338.26 -87.11 305.67 -256.75 280.96 -392.09 264.18 -231.11 243.62 -233.71 239.22 -352.29 244.97 -211.89 240.44 -39.42 227.45 -0.94 198.98 -119.93 151.32 -261.63 82.46 -281.5 -6.47 -154.53 -102.79 15.07 -198.94 97.18 -277.68 43.38 -321.9 -83.07 -323.57 -171.1 -281.22 -151.52 -215.09 -29.12 -146.25 121.93 -107.52 226.43 -126.52 238.94 -206.94 176.69 -331.17 82.24 -454.23 17.53 -531.58 14.32 -529.28 75.62 -454.74 181.41 -348.09 297.93 -274.13 404 -286.92 475.69 -389.59 511.29 -534.19 514.61 -639.11 498.08 -644.27 475.91 -547.08 448.5 -419.29 431.23 -351.1 426.97 -400.15 427.78 -539.26 440.65 -672.54 462.5 -701.65 486.51 -606.05 515.62 -458.05 548.21 -375.95 580.79 -429.28 616.07 -571.57 655.53 -688.21 697.15 -690.45 746.81 -574.7 807.45 -427.04 873.16 -350.02 950.79 -391.37 1037.32 -511.72 1118.6 -625.24 1193.02 -648.57 1246.18 -565.71 1267.06 -423.74 1250.45 -303.3 1197.88 -263.9 1134.87 -316.93 1081.01 -419.81 1069.92 -508.22 1123.33 -534.79 1236.53 -479.5 1377.6 -366.75 1486.49 -237.62 1518.74 -140.08 1456.97 -99.64 1348.62 -119.76 1266.87 -179.71 1285.75 -248.12 1412.24 -302.49 1574.98 -317.94 1662.73 -290.77 1614.57 -226.06 1476.55 -137.4 1378.63 -41.86 1427.53 52.28 1595.77 130.44 1738.66 189.04 1724.1 229.6 1572.86 253.16 1450.83 265.94 1595.53 269.15 1635.93 279.31 1486.13 299.66 1627.88 315.87 1800.85 340.18 1786.69 372.76Q1786.65 372.77 1786.65 372.77" opacity="0.53"></path><path d="M1727.65 568.81C1556.11 599.36 1429.32 629.73 1484.71 658.89 1704.81 698.94 1443.76 745.5 1464.89 741.34 1621.94 730.17 1705.61 709.64 1635.44 683.46 1468.64 663.47 1343.22 650.59 1349.08 654.41 1467.37 683.28 1588.09 739.38 1611.84 822.69 1516.48 920.63 1362.39 1022.02 1242.76 1106.48 1216.86 1153.65 1283.54 1153.75 1385.61 1106.04 1462.04 1032.78 1462.36 959.08 1387.01 920.03 1263.06 942.44 1138.88 1027.2 1051.28 1151.69 1015.76 1268.41 1030.9 1332.76 1075.55 1315.75 1157.29 1176.92 1181.26 1126.29 1116.82 1317.32 1053.47 1413.26 986.38 1411.77 922.47 1313.31 856.98 1185.22 799.72 1111.37 751.62 1147.16 704.15 1273.58 665.2 1406.71 634.65 1453.05 604.1 1379.29 582.68 1238.27 570.65 1128.26 559.24 1121.74 557.88 1217.61 565.75 1346.5 572.05 1424.52 582.55 1397.87 590.48 1283.51 584 1146.37 560.73 1062.19 511.78 1069.1 438.21 1155.79 340.95 1264.8 231.86 1333.34 137.06 1325.55 73.22 1240.41 61.65 1115.9 141.53 966.43 271.63 1028.88 134.03 1135.56 -8.07 1167.62 -112.87 1148.42 -123.05 1084.48 -39.49 988.98 80.58 885.01 144.13 792.13 88.57 720.09 -61.74 678.06 -207.28 663.01 -240.39 671.72 -139.86 693.32 4.54 718 0.54 754.62 -271.18 766.55 -64.74 741.9 6.71 717.92 -97.73 689.08 -276.14 658.09 -337.57 625.85 -213.88 593.91 -42.34 563.36 -22.1 532.81 -172.61 504.38 -320.26 477.12 -302.57 448.61 -136.83 418.81 2.44 385.19 -22.16 346.93 -174.59 300.95 -292.65 244.8 -257.95 182.13 -97.94 109.36 45.01 29.06 55.46 -48.55 -60.58 -121.77 -189.46 -180.66 -220.21 -215.78 -120.09 -222.45 38.22 -197.5 152.97 -151.71 157.3 -93.21 69.64 -41.41 -43.78 -21.17 -99.24 -43.9 -62.41 -115.99 51.91 -223.03 189.69 -340.51 294.91 -432.62 337 -468.23 312.75 -436.69 250 -351.82 175.85 -259.12 128.02 -203.56 121.58 -223.01 156.91 -318.78 226.62 -452.68 313.18 -561.78 408.78 -591.09 495.43 -526.82 566.82 -406.93 626.18 -309.8 669.45 -297.71 701.6 -387.49 725.73 -528.17 746.21 -633.06 767.59 -632.6 787.12 -528.66 811.4 -390.74 841.95 -316.95 872.5 -363.25 908.59 -493.27 948.55 -613.67 986.68 -643.44 1024.83 -560.63 1058.32 -420.75 1083.78 -310.48 1097.11 -294.39 1093.18 -373.06 1077.22 -494.65 1044.83 -579.19 1002.17 -576.32 968.55 -485.75 950.45 -352.57 965.27 -240.63 1021.85 -196.34 1118.37 -231.08 1239.6 -315.98 1349.44 -408.67 1419.17 -459.43 1420.81 -445.79 1359.31 -370.68 1263.48 -258.85 1189.17 -145.55 1192.36 -57.79 1285.93 -15.93 1435.42 -19.39 1559.17 -60.12 1588.88 -116.04 1505.96 -166.9 1379.45 -203.14 1308.91 -210.55 1366.87 -189.27 1522.99 -142.94 1663.96 -78.45 1675.93 -5.52 1555.37 73.6 1415.24 148.38 1397.75 214.98 1533.02 276.86 1700.05 328.85 1736.49 372.54 1609.03 411.96 1452.27 446.31 1440.57 477.91 1594.22 508.25 1747.87 538.25 1727.69 568.8Q1727.65 568.81 1727.65 568.81" opacity="0.45"></path><path d="M1668.65 388.51C1443.63 427.63 1614.66 471.17 1663.41 478.49 1443.23 485.66 1518.02 517.15 1641.05 562.86 1562.1 611.72 1407.28 676.5 1284.99 755.98 1270.19 840.4 1359.15 925.7 1477.45 999.97 1544.67 1049.76 1510.83 1068.16 1395.58 1049.66 1254.65 1002.97 1156.39 937.9 1134.57 875.55 1186.59 843.41 1273.49 855.6 1348.14 919.91 1380.75 1023.01 1352.78 1139.08 1276.18 1231.38 1169.12 1267.83 1061.79 1236.71 975.07 1151.13 916.59 1054.84 891.74 992.53 892.24 1002.03 913.49 1087.53 940.96 1214.92 965.02 1325.56 988.33 1364.88 999.74 1313.34 999.11 1198.69 993.45 1089.95 978.34 1050.06 956.72 1108.27 933.34 1234.23 906.72 1354.32 878.2 1394.05 849.69 1328.29 819.97 1198.48 787.81 1084.44 753.9 1052.37 714.29 1116.76 666.18 1234.45 613.04 1337.97 548.81 1365.03 473.76 1301.56 397.98 1179.29 319.88 1058.53 249.21 993.56 199.3 1008.66 175.96 1087.6 187.64 1185.78 227.54 1258.33 289.41 1267.8 352.54 1210.34 385.19 1105.05 370.72 988.73 297.32 896.96 181.87 851.55 55.82 858.84 -33.56 905.27 -49.1 973.62 13.55 1035.17 120.82 1070.99 202.41 1073.78 204.5 1039.33 107.59 976.38 -40.38 893.13 -156.98 804.64 -167.61 722.16 -70.75 649.01 60.82 593.19 118.88 554.16 -34.32 523.69 -157.38 512.99 44.98 510.83 -18.97 505.99 -206.92 463.4 16.65 424.27 42.04 395.76 -88.46 360.66 -240.92 319.31 -267.4 277.93 -140.66 230.47 20.07 177.91 72.9 126.73 -21.28 73.05 -168.42 20.23 -238.63 -25.51 -166.85 -63.67 -10.79 -88.86 114.59 -99.24 122.56 -91.61 23.67 -65.29 -102.72 -29.62 -157.01 13.41 -101.12 52.72 34.44 71.74 171.68 63.76 242.22 20.19 221.03 -56.41 134.83 -157.11 40.91 -262.83 -13.44 -346.64 4.46 -389.53 85.59 -377.8 204.35 -319.7 319.57 -235.14 401.87 -159.53 439.17 -131.73 431.54 -168.82 395.49 -266.8 319.12 -441.5 263.81 -433.46 302.26 -276.18 348.31 -228.78 401.75 -269.43 455.92 -383.94 513.76 -512.64 566.41 -585.44 611.65 -559.05 657.05 -450.66 694.26 -323.74 722.77 -257.95 751.29 -297.64 770.43 -414.83 780.56 -535.16 790.86 -587.76 792.94 -539.5 788.87 -419.77 788.47 -294.11 787.85 -228.94 793.52 -252.15 813.57 -346.68 850.64 -455.51 910.42 -520.13 988.26 -508.74 1083 -423.2 1182.9 -301.49 1271.56 -202.16 1106.7 -373.79 1209.02 -292.58 1340.31 -192.87 1462.1 -88.64 1516.99 -1.15 1355.43 48.11 1608.24 -72.41 1511.41 -80.16 1376.25 -65.57 1323 -36.71 1409.26 1.59 1572.49 47.93 1680.32 97.16 1638.54 145.55 1488.81 196.11 1370.44 242.62 1402.5 283.64 1560.58 324.87 1694.02 359.99 1668.69 388.5Q1668.65 388.51 1668.65 388.51" opacity="0.46"></path><path d="M1609.65 233.81C1463.24 260.29 1329.53 287.75 1321.17 316.77 1441.94 346.69 1584.64 379.88 1630.21 417.83 1542.25 458.69 1388.04 506.41 1282.04 561.85 1295.6 620.31 1408.84 685.24 1531.61 753.99 1576.99 818.51 1509.16 878.28 1371.73 926.34 1242.7 956.28 1192.58 964.73 1235.78 948.5 1339.53 913.96 1435.77 864.19 1470.97 810.63 1426.77 772.23 1320.36 758.65 1196.3 781.83 1094.99 843.66 1048.88 936.47 1060.07 1042.4 1116.49 1133.88 1187.33 1188.98 1244.98 1190.32 1275.82 1140.68 1266.7 1056.7 1222.94 971.34 1151.64 924.47 1067.76 938 984.44 1015.53 904.33 1130.85 838.65 1241.13 788.13 1300.14 749.09 1283.27 721.7 1198.07 701.16 1085.29 686.49 1004.75 672.65 997.56 656.33 1072.73 641.26 1194.74 621.03 1301.5 594.56 1335.05 568.08 1276.93 535.98 1159.03 499.49 1044.67 464.24 991.7 427.26 1023.82 392.01 1119.53 362.62 1230.79 340.96 1298.93 331.96 1291.86 334.45 1212.66 353.1 1095.06 387.34 987.61 424.78 929.51 463.92 938.4 491.75 1001.85 492.03 1092.4 458.95 1168.65 387.31 1201.37 288.85 1179.47 178.6 1107.42 84.3 1007.3 35.24 902.77 44.99 820.39 111.6 774.3 200.96 768.65 274.32 796.76 287.26 844 220.81 899.85 95.08 945.37 -36.22 970.94 -106.99 974.76 -82.52 953.34 22.88 911.77 136.7 853.72 182.95 787.21 118.16 719.15 -24 649.51 -154.48 586.09 -182.98 530.61 -91.92 479.56 49.64 436.54 127.37 399.99 71.59 366.74 -78.89 337.33 -204.9 310.01 -201.78 283.64 -70.75 257.54 75.65 231.07 105.3 204.59 -4.88 178.37 -155.12 153.17 -218.28 128.92 -139.49 107.51 15.14 90.83 125.57 77.44 110.77 71.42 -7.3 74.44 -135.9 81.87 -173.49 98.28 -93.35 122.03 112.75 155.1 67.04 168.28 -73.08 113.28 -74.85 46.91 9.72 -37.99 138.22 -131.72 246.93 -261.72 90.02 -86.27 175.37 -70.63 273.39 -130.9 373.87 -232.8 459.22 -346.96 523.15 -434.04 558.49 -464.52 570.34 -425.85 524.16 -254.51 484.16 -509.17 502.36 -481.42 518.32 -372.32 539.96 -257.09 566.43 -198.95 592.91 -232.47 623.6 -336.53 659.2 -453.31 696.03 -523.27 739.91 -508.3 792.2 -417.56 847.1 -294.57 910.7 -196.71 981.03 -164.88 1048.17 -208.94 1113.21 -301.97 1167.43 -397.89 1201.48 -456.03 1210.88 -448 1190.44 -377.52 1148.57 -268.54 1090.3 -158.9 1033.07 -81.69 1003.07 -55.46 1013.35 -81.08 1075.02 -141.29 1177.05 -215.96 1296.84 -275.72 1396.54 -302.85 1439.12 -291.35 1410.19 -241.41 1321.97 -165.13 1224.72 -73.69 1169.6 15.47 1198.91 90.83 1308.84 147.86 1450.01 181.61 1547.04 195.15 1544.86 190.56 1447.2 175.52 1320.12 156.89 1259.36 134.02 1314.16 116.11 1457.69 105.69 1590.72 98.27 1618.2 99.61 1518.02 108.67 1373.59 120.65 1302.56 138.27 1370.91 159.92 1526.37 182.47 1639.28 207.33 1609.69 233.8Q1609.65 233.81 1609.65 233.81" opacity="0.79"></path><path d="M1550.65 449.59C1416.97 474.03 1284.71 503.86 1250.31 538.55 1336.05 572.92 1474.57 611.41 1564.98 652.69 1545.49 691.97 1427.61 731.5 1288.8 768.49 1212.66 799.36 1240.41 823.09 1344.61 836.17 1459.76 838.79 1511.95 828.03 1472.04 803.62 1359.11 772.86 1229.2 735.61 1140.47 698.88 1125.37 674.83 1180.69 667.49 1270.58 684.88 1355.1 729.99 1392.44 800.92 1369.19 890.41 1292.11 982.01 1186.07 1061.77 1081.58 1112.13 999.33 1121.96 956.82 1089.1 953.25 1022.02 983.16 945.06 1029.89 880.71 1077.56 854.59 1120.55 882.16 1144.77 959.61 1148.35 1066.92 1134.28 1169.06 1103.43 1232.61 1062.13 1233.48 1011.71 1173.32 959.38 1074.83 909.47 979.44 857.85 931.78 812.01 953.56 773.09 1039.88 734.25 1154.87 702.47 1248.22 678.03 1276.05 653.59 1225.21 637.07 1119.67 628.31 1008.42 619.63 939.85 618.57 941.56 624.1 1008.24 631.45 1156 631.74 1179.51 597.18 1031.12 551.25 930.57 485.73 869.69 402.61 862.31 314.81 906.15 229.13 979.98 161.55 1056.07 127.45 1112.66 133.59 1129.03 180.87 1101.52 250.4 1036.08 322.88 947.71 367.93 855.11 359.15 771.87 291.3 712.49 177.93 681.35 59.18 678.53 -23.34 697.96 -33.68 730.21 29.58 771.04 135.81 807.96 226.95 834.89 245.06 852.45 172.95 854.89 39.88 843.65 -82.22 821.47 -125.88 789.73 -63.53 752.29 61.48 709.37 167.69 665.48 177.75 623.21 77.91 579.48 -67.79 539.5 -158.37 504.32 -128.81 469 0.97 438.9 134.65 414.46 167.64 390.02 77.57 371.82 -64.2 359.54 -154.39 347.11 -125.66 340.18 -0.38 337.83 137.06 334.01 196.91 332.63 148.02 331.21 27.01 324.31 -81.74 312.65 -109.44 292.49 -38.94 261.38 91.51 217.65 212.67 159.96 268.34 92.91 238.29 17.04 149.79 -61.45 49.2 -131.37 -8.31 -187.18 2.92 -219.34 79.64 -223.18 193.03 -197.36 303.74 -146.16 396.09 -56.66 299.87 -14.25 213.44 -118.06 182.08 -219.6 184.47 -317.11 217.1 -382.77 274.88 -397.2 346.87 -356.24 422.2 -273.62 498.97 -183.44 566.36 -118.73 622.11 -109.36 669.96 -164.7 706.92 -267.14 736.06 -378.95 760.1 -455.08 780.86 -464.01 801.18 -400.29 820.21 -293.88 841.42 -190.81 865.85 -139.95 890.29 -167.74 917.38 -258.61 945.96 -368.77 973.23 -450.26 999.38 -464.88 1021.44 -407.81 1038.39 -302.99 1046.71 -192.83 1043.2 -118.86 1031.79 -105.92 1007.81 -153.55 973.4 -237.78 925.07 -355.94 917.82 -298.57 1005.11 -152.15 1096.3 -59.62 1198.5 0.44 1289.82 19.47 1345.31 -2.01 1351.78 -51.27 1305.03 -110.83 1184.91 -186.98 1155.54 -176.38 1323.93 -92.81 1437.89 -18.42 1491.64 57.78 1457.8 128.67 1358.44 193.2 1247.89 245.27 1195.28 285 1240.86 314.27 1365.52 333.95 1500.33 347.41 1563.04 354.76 1514.9 360.5 1386.89 367.31 1271.02 372.12 1249.45 380.54 1344.44 393.77 1491.05 406.68 1583.63 425.14 1550.69 449.58Q1550.65 449.59 1550.65 449.59" opacity="0.60"></path><path d="M1491.65 554.8C1306.79 587.13 1296.31 636.42 1469.16 649.8 1511.45 655.24 1456.13 654.42 1335.63 646.85 1212.53 637.52 1149.22 622.29 1170.39 602.81 1313.3 578.2 1399.9 569.9 1252.57 609.81 1139.41 658.94 1065.37 724.32 1048.45 801.79 1087.41 880.82 1159.64 954.65 1235.03 1011.86 1291.64 1042.55 1307.75 1041.91 1281 1008.8 1217.27 953.44 1131.75 886.17 1042.08 824.93 958.24 790.68 894.45 794.02 854 840.57 836.07 922.22 837.25 1021.33 850.13 1112.24 873.42 1168.91 897.04 1175.22 916.16 1128.12 934.6 1045.52 944.57 953.76 945.99 886.64 944.75 872.23 936.3 917.32 922.12 1008.92 906.96 1114.34 887.84 1194.47 865.44 1217.05 843.04 1173.09 817.88 1080.14 789.4 975.01 759.95 896.45 725.4 871.94 684.4 906.72 640.73 987.11 589.26 1080.45 530.17 1153.02 470.41 1181.92 407 1155.63 344.89 1083.44 293.19 985.64 254.15 890.12 235.3 820.76 238.97 791.85 267.04 806.24 316.35 853.9 371.5 921.64 423.68 987.17 455.35 1033.76 450.05 1052.95 403.17 1038.06 317.21 993.29 212.46 925.22 112.26 845.78 46.85 766.51 37.31 693.79 86.42 636.85 176.25 598.15 264.74 577.57 314.07 573.26 293.85 580.41 205.11 598 80.59 618.61 -25.6 637.93 -63.19 658.05 -14.46 672.2 95.99 679.37 203.85 683.73 248.46 681.08 197.53 672.4 75.45 661.56 -49.96 646.35 -103.64 627.98 -52.85 608.96 72.71 588.01 193.65 565.6 229.04 543.2 158.39 519.89 30.24 495.27 -76.2 470.01 -93.18 442.22 -12.52 410.81 119.13 377.25 227.53 338.41 257.22 293.4 197.19 245.59 86.93 191.66 -11.11 132.71 -47.73 74.57 -1.71 16.1 104.15 -38.27 269.97 -97.92 257.46 -111.61 132.9 -59.15 75.29 -11.94 68.78 36.74 113.66 75.45 198.47 90.87 299.31 77.81 392.42 32.18 463.36 -40.84 499.8 -131.31 503.48 -222.39 478.62 -293.38 438.37 -329.49 395.25 -320.58 353 -271.21 324.27 -193.95 311.77 -112.56 312.73 -56.79 328.91 -45.06 355.93 -86.59 391.79 -171.79 431.98 -275.83 472.48 -364.87 515.75 -408.32 555.63 -390.42 590.39 -316.32 625.51 -215.62 654.58 -124.93 676.99 -80.95 699.39 -103.5 714.6 -181.34 723.11 -282.33 732 -369.52 735.11 -408.03 734.09 -384.99 735.83 -309.24 737.14 -206.78 741.92 -111.54 755.55 -51.78 779.15 -43.49 817 -83.73 868.31 -158.22 934.9 -239.08 1013.93 -300.75 1093.83 -327.33 1169.8 -308.96 1229.2 -251.39 1260.05 -166.83 1256.98 -74.62 1218.1 7.19 1122.01 81.06 1033.2 44.65 1134.48 -23.85 1244.98 -69.27 1350.93 -101.3 1414.93 -115.91 1413.44 -113.67 1347.56 -93.2 1245.52 -58.41 1159.62 -11.55 1131.84 41.97 1184.86 97.56 1299.32 155.87 1424.17 210.89 1496.86 260.86 1479.84 309.08 1382.16 351.39 1259.14 388.2 1187.1 423.2 1210.64 453.93 1321.49 481.25 1454.07 507.97 1527.04 532.39 1491.69 554.79Q1491.65 554.8 1491.65 554.8" opacity="0.22"></path><path d="M1432.65 314.9C1324.39 335.26 1203.64 351.12 1133.39 362.85 1148.01 374.9 1236.23 383.53 1349.98 389.71 1434.15 397.52 1445.57 404.75 1380.52 413.27 1267.73 426.15 1156.39 443.39 1090.53 467.3 1092.31 498.57 1154.69 538.79 1246.29 588.7 1331.77 644.81 1374.47 707.78 1360.18 774.14 1293.35 836.48 1195.07 892.25 1094.26 934.88 1013.91 958.85 972.98 961.32 973.95 940.53 1011.85 902.02 1069.84 849.53 1129.85 792.73 1181.37 746.61 1209.12 719.44 1209.64 721.18 1184.46 756.14 1137.53 820.98 1077.41 906.13 1007.73 994.1 938.83 1067.96 876.1 1110.13 818.27 1110.87 771.09 1069.43 733.83 996.09 703.46 913.88 680.32 844.63 661.65 810.89 646.54 826.22 632.45 887.66 617.39 979.07 603.18 1072.94 586.26 1140.22 565.9 1158.05 545.53 1120.56 522.2 1040.17 496.74 943.69 472.14 860.74 447.13 815.88 423.84 819.95 404.11 870.42 389.52 948.76 382.94 1030.29 383.24 1093.63 394.26 1118.88 416.79 1100.29 444.23 1042.71 478.72 959.86 514.95 870.91 541.64 792.67 556.1 740.63 549.89 721.18 517.98 734.97 459.93 774.24 379.27 827.21 290.11 884.97 204.16 932.67 139.57 962.1 111.91 970.7 127.41 955.35 183.71 919.58 260.48 866.95 336.08 804.43 381.71 738.8 374.79 672.35 312.35 612.22 208.71 560.99 98.94 517.82 19.97 485 3.27 461.05 54.2 444.74 152.27 434.21 253.57 426.92 307.12 423.62 285.99 420.42 193.95 415.55 25.24 408.54 85.05 375.62 252.65 347.55 289.5 327.18 237.08 302.35 126.44 273.46 14.57 244.8 -38.59 212.58 -7.94 177.75 91.04 144.21 211.27 109.69 298.74 76.03 318.13 46.37 266.09 20.73 171.74 1.75 75.57 -9.59 21.96 -11.19 31.43 -1.47 100.61 16.3 204.9 43.97 309.26 79.03 384.88 113.28 411.56 145.49 389.67 168.99 329.72 175.63 256.47 163.02 193.32 127.73 154.23 71.62 152.21 -1.49 185.5 -83.29 248.09 -160.31 327 -222.27 408.6 -257.27 486.01 -259.05 547.65 -226.75 590.55 -166.68 619.48 -62.76 597.73 -2.54 573.85 -96.62 556.7 -189.64 545.25 -277.71 540.56 -336.05 536.96 -348 540.15 -309.16 549.6 -230.24 559.62 -137.79 574.95 -59.46 595.31 -21.95 615.68 -39.74 640.59 -104.95 670.24 -194.79 700.45 -282.18 736.35 -337.64 778.35 -345.13 821.44 -303.55 870.62 -224.58 924.73 -130.87 977.1 -46.04 1030.17 8.66 1079.41 22.86 1118.12 -4.36 1144.45 -61.61 1153.02 -131.43 1143.57 -198.41 1114.4 -243.52 1068.38 -257.28 1018.17 -237.82 969.56 -187.98 936.1 -117.81 931.94 -36.96 961.91 40.93 1027.68 106.14 1117.52 153.62 1216.19 179.12 1300.2 184.29 1346.15 170.8 1342.16 145.34 1287.77 114.4 1204.62 79.42 1120.05 48.92 1069.03 26.25 1077.7 9.77 1147.89 3.97 1258.97 7.99 1368.26 19.38 1433.59 38.3 1425.71 62.37 1349.75 90.8 1239.25 121.29 1148.1 151.89 1125.28 184.12 1184.41 214.58 1300.3 242.2 1414.97 270.13 1469.49 294.52 1432.69 314.89Q1432.65 314.9 1432.65 314.9" opacity="0.53"></path><path d="M1373.65 264.7C1277.94 283.03 1166.57 303.88 1087.31 327.33 1072.08 351.13 1124.41 378.16 1219.17 408.82 1318.71 440.48 1380.66 476.41 1382.17 516.72 1323.4 557.93 1225.44 602.98 1122.41 650.79 1045.55 696.98 1017.49 742.92 1041.06 785.79 1106.05 821.46 1186.89 849.01 1257.29 865.16 1299.34 868.89 1299.01 858.54 1258.18 833.93 1185.56 800.19 1098.14 758.27 1013.44 713.75 920.65 663.28 905.71 676.36 959.03 755.98 1003.92 829.81 1043.26 908.44 1071.92 979.42 1090.77 1029.91 1095.04 1051.47 1086.47 1038.86 1067.5 995.98 1039.9 930.22 1007.36 856.05 969.76 793.2 931.63 755.4 895.39 754.25 857.82 792.75 824.08 863.08 795.14 949.44 766.06 1030.41 742.16 1085.47 723.83 1099.05 705.5 1067.58 693.18 999.52 686.56 913.65 679.08 802.35 685.12 795.4 691.55 891.14 690.84 964.69 685.88 1022.43 673.09 1052.07 649.89 1048.75 614.65 1012.17 565.7 950.32 506.95 873.3 438.4 794.91 365.26 727.02 298.15 677.33 241.93 651.72 206.01 649.96 196.6 670.36 216.02 705.75 262.49 748.27 323.17 793.97 387.71 833.14 438.69 861.04 457.88 877.26 437.8 878.04 376.66 864.66 287.18 838.89 188.58 803.04 107.24 760.77 67.32 712.65 80.44 663.36 143.87 615.45 233.47 567.21 319.49 522.89 367.91 483.13 356.07 445.01 285.36 411.46 178.75 382.06 76.91 353.93 19.19 329 30.79 306.69 106.43 284.78 215.94 264.74 311.65 246.41 348.99 228.08 313.17 211.89 222.51 198.11 76.84 179.59 123.44 162.64 278.63 167.31 357.61 173.81 383.05 185.58 351.59 202.05 276.47 218.2 188.32 236.52 117.93 254.54 85.71 266.72 103.59 273.35 164.75 270.89 254.25 256.03 348.52 227.96 426.7 185.53 475.87 131.4 488.52 67.07 468.78 -2.64 423.09 -69.19 366.85 -127.45 313.55 -169.51 269.7 -189.41 246.45 -184.21 245.61 -153.61 265.6 -104.81 303.78 -44.19 353.8 16.48 413.27 61.99 474.21 83.64 532 73.54 588.08 30.48 636.62 -39.18 677.33 -123.07 713.5 -203.43 742.92 -263.65 767.28 -289.16 788.85 -274.3 807.77 -221.41 825.57 -142.89 842.61 -60.65 860.02 5.55 878.34 37.04 896.67 23.49 915.49 -29.69 934.16 -107.03 960.18 -222.24 993.79 -254.68 993.16 -158.21 985.71 -73.7 969.72 3.98 945.4 60.31 919.38 86.36 889.42 79.75 860.03 45.6 840.11 -9.01 831.14 -69.88 839.39 -124.63 868.46 -165.83 918.99 -184.09 989.06 -177.54 1068.58 -147.7 1149.99 -98.55 1219.71 -37.2 1263.49 31.34 1273.73 98.43 1246.22 158.39 1189.69 209.23 1115.83 246.86 1045.41 271.39 1003.32 283.48 1003.18 285.15 1051.73 279.57 1138.47 266.79 1241.55 251.84 1330.11 237.41 1375.03 221.36 1361.55 208.86 1292.93 200.91 1152.45 192.86 1127 202.76 1278.98 218.74 1373.28 230.99 1410.99 246.37 1373.69 264.69Q1373.65 264.7 1373.65 264.7" opacity="0.55"></path><path d="M1314.65 516.12C1130.85 548.7 1011.22 591.57 1090.65 640.13 1295.52 703.88 989.82 740.97 1014.91 677.54 1149.05 622.59 1226.6 574.36 1195.23 564.75 1074.54 616.12 932.95 724.91 829.46 860.32 781.52 961.74 786.89 982.65 814.66 905.46 857.84 784.79 885.54 697.25 890.85 716.58 891.58 841.26 873.87 986.68 841.29 1040.05 808.7 957.97 762.79 806.76 700.6 701.86 633.85 712.95 546.87 819.29 447.22 936.23 362.98 990.72 303.95 943.35 301.66 826.27 354.93 691.98 449.74 598.98 527.73 568.71 516.39 598 400.2 656.82 232.14 712.71 134.43 757.37 182.57 769.17 337.5 752.62 431.17 716.59 353.93 667.96 165.83 618.61 73.82 565.28 186.85 520.25 370.65 487.66 384.88 455.07 219.27 436.48 86.94 428.35 142.3 416.25 325.06 405.61 443.02 385.17 394.47 345.27 250.7 279.81 159.63 184.94 197.23 78.82 338.52 -26.77 484.54 -98.77 566.87 -111.23 559.18 -56.87 500.1 43.47 420.76 126.63 372.02 144.8 364.76 66.44 388.77 -74.36 437.46 -199.26 491.13 -222.96 551.54 -130.66 601.12 13.94 633.71 96.04 666.29 42.71 680.35 -96.09 681.39 -208.21 689.17 -215 699.75 -108.93 732.19 35.63 795.91 136.72 898.31 145.04 1027.87 77.55 1137.19 -23.92 1191.68 -94.08 1152.07 -102.75 1048.77 -50.43 946.1 44.57 942.41 149.74 1067.38 251.77 1240.38 328.67 1312.85 380.16 1218.8 412.74 1054.58 432.33 1011.75 449.88 1156.62 462.76 1328.85 483.52 1314.69 516.11Q1314.65 516.12 1314.65 516.12" opacity="0.52"></path><path d="M1255.65 508.66C1030.29 545.56 1181.03 554.04 1250.38 522.4 1132.22 500.38 978.23 477.31 887.66 467.32 900.96 486.32 989.15 539.13 1083.78 628.75 1141.25 735.98 1127.81 840.92 1060.23 907.81 957.78 911.65 855.03 848.2 771.55 742.77 702.89 655.39 657.31 630.97 625.4 695.57 600.47 821.41 576.45 941.32 547.94 981.05 519.43 915.28 487.78 785.64 458.93 670.82 437.07 631.14 430.78 679.68 450.03 778.32 484.1 878.02 539.9 922.69 598.41 896.74 622.05 811.97 594.55 700.21 499.7 597.16 306.71 502.27 327.82 517.82 489.3 557.92 390.93 588.09 207.18 571.4 429.65 533.47 455.04 504.96 328.04 468.12 181.18 421.81 148.54 372.9 261.89 310.93 420.79 236.4 509.19 162.12 474.1 84.71 365.03 18.11 258.16 -21.73 231.31 -26.18 291.19 13.09 409.86 78.77 533.26 156.72 623.25 211.81 671.04 208.07 676.73 137.85 661.75 17.25 630.29 -102.28 606.47 -167.06 599.06 -138.4 592.83 -34.6 604.22 89.25 632.72 155.04 661.23 115.35 705.52 1.22 765.51 -113.61 826.69 -167.23 902.37 -126.61 983.25 -18.33 1047.64 107.99 1088.92 197.02 1085.09 222.88 1039.06 185.69 956.59 114.55 875.29 44.68 852.75 -7.56 913.38 -19.44 1049.93 5.49 1188.7 59.42 1249.38 129.45 1181.91 200.87 1043.92 275.69 946.76 340.04 990.37 391.57 1148.22 441.26 1281.02 480.13 1255.69 508.65Q1255.65 508.66 1255.65 508.66" opacity="0.72"></path><path d="M1196.65 258.95C1062.98 283.39 930.6 301.02 891.48 314.26 966.34 330.35 1093.53 347.78 1185.3 372.55 1190.54 408.08 1104.65 458.99 978.6 527.96 864.67 606.06 808.73 692.35 814.96 772.51 871.19 827.53 941.71 846.57 997.82 818.98 1034.54 755.93 1037.31 671.07 1014.68 595.74 973.95 566.73 925.36 598.09 879.81 687.04 831.3 800.97 793.13 894.22 768.69 922.05 744.25 871.21 734.7 765.83 737.13 655.08 736.59 582.69 740.72 573.5 739.1 621.31 719.38 706.35 676.36 788.85 601.97 840.02 508.19 849.79 402.59 813.22 314.33 745.18 276.07 657.61 303.03 570.78 391.52 497.12 492.12 436.64 556.09 395.43 532.94 368.78 352.71 347.87 291.26 313.96 488.65 281.72 521.64 257.28 434.44 225.18 299.32 188.23 208.66 153.83 227.54 119.91 337.04 93.2 474.45 77.5 564.73 78.46 575.03 101.27 511.72 137.26 420.05 189.01 346.8 244.54 312.47 280.56 332.7 288.15 391.68 252.94 477.13 176.33 564.83 71.92 640.18 -31.02 708.24 -96.76 758.52 -101.49 795.35 -38.55 827.44 62.74 854.06 163.18 878.49 214.04 902.93 186.24 924.04 97.96 938.04 -6.54 947.31 -86.07 941.49 -103.54 915.79 -56.62 882.79 36.6 835.34 143.39 787.55 231.88 766.22 284.92 781.06 294.86 847.41 271.88 952.67 223.75 1073.33 172.55 1162.1 132.11 1177.27 100.81 1108.93 90.14 989.44 96.96 897.83 114.54 892.83 141.57 992.9 171.57 1137.44 204.42 1229.63 234.5 1196.69 258.94Q1196.65 258.95 1196.65 258.95" opacity="0.49"></path><path d="M1137.65 323.68C1029.39 344.04 908.85 372.95 836.77 409.94 843.84 447.56 918.98 493.89 1019.37 547.38 1104.7 599.38 1134.7 653.92 1103.67 704.43 1024 742.23 923.63 764.05 831.34 762.25 760.18 738.37 723.16 690.75 715.13 626.73 731.58 566.25 758.46 519.16 783.91 502.9 812.54 528.69 829.9 593.81 834.08 685.33 836.91 777.92 827.9 845.22 807.53 863.05 787.17 825.55 756.41 745.25 715.17 649.82 672.59 565.9 618.17 515.91 554.25 507.87 493.51 540.64 433.09 598.51 385.25 662.53 361.9 723.01 369.68 761.56 414.15 773.62 479.74 761.97 555.97 728.19 614.43 681.21 624.26 623.63 575.99 565.2 475.74 511.72 360.42 458.39 273.68 413.28 258.76 377.03 322.98 341.81 439.39 314.01 547.65 293.64 584.5 273.28 534.2 261.32 429.83 258.12 321.66 255.97 266.78 264.03 285.82 282.07 368.08 300.25 478.95 325.15 577.66 351.33 639.82 366.93 651.89 371.47 624.3 356.43 567.53 317.68 507.5 254.98 460.86 173.3 427.18 88.07 417.65 11.93 427.27 -35.75 449.71 -42.65 480.6 -4.25 512.21 71.81 546.75 159.37 575.77 235.55 596.13 273.05 616.5 255.22 627.26 192.04 631.12 107.31 637.93 23.66 644.08 -29.87 656.92 -40.73 682.59 -9.54 725.65 55.8 790.71 137.49 868.73 222.71 958 294.48 1041.48 345.05 1095.77 373.54 1107.86 380.96 1066.93 374.55 989.43 355.43 896.81 334.43 829.47 317.72 825.34 299.53 891.78 290.24 1007.8 291.03 1120.04 292.44 1174.49 303.3 1137.69 323.67Q1137.65 323.68 1137.65 323.68" opacity="0.48"></path><path d="M1078.65 558.54C833.61 610.72 1024.33 651.08 1019.69 558.32 890.9 484.51 759.85 439.34 672.87 480.21 610.91 605.65 574.58 750.69 542 804.05 509.41 721.97 483.66 570.93 489.15 462.51 519.66 449.57 599.86 514.94 685.94 594.06 630.59 672.32 368.22 598 606.65 542.66 620.88 510.08 463.36 493.5 339.02 477.02 368.81 441.08 522.72 372.33 664.24 260.31 729.91 88.52 648.34 181.06 675.91 332.05 708.48 278.69 780.59 146.85 880.54 45.3 965.53 28.32 1025.5 108.04 998.01 224.56 899.21 344.16 779.85 426.76 773.91 474.51 922.11 503.07 1092.85 525.95 1078.69 558.53Q1078.65 558.54 1078.65 558.54" opacity="0.49"></path><path d="M1019.65 439.95C885.98 464.39 753.41 464.11 705.73 442.17 756.41 421.98 853.44 389.69 931.67 365.17 977.27 373.58 969.17 422.11 933.16 514.51 880.44 624.15 833.73 717.22 809.3 745.05 784.86 694.21 785 589.12 795.37 481.5 789.02 402.84 758.98 372.75 681.35 380.24 509.62 436.81 470.65 498.61 665.65 473.63 698.64 449.19 617.13 403.72 497.42 340.12 407.2 275.94 405.01 199.26 470.09 129.92 574.7 90.4 673.87 94.57 744.42 155.32 803.82 245.03 841.86 340.21 866.3 391.05 890.75 363.22 899.28 280.06 882.24 188.32 854.04 113.83 793.02 91.23 720.42 114.85 687.36 171.39 715.46 241.83 823.57 304.38 961.19 368.66 1052.63 415.5 1019.69 439.94Q1019.65 439.95 1019.65 439.95" opacity="0.68"></path><path d="M960.65 232.29C776.87 264.87 649.07 298.48 657.5 373.66 747.21 488.44 799.24 632.7 766.66 686.05 734.07 603.97 623.05 453.37 490.63 349.05 439.49 293.22 540.87 273.02 724.65 240.44 738.88 207.85 597.59 169.06 501.5 182.18 480.23 243.79 534.43 367.97 567.02 450.05 599.6 396.7 604.4 278.86 668.37 206.78 807.15 174.32 974.86 199.7 960.69 232.28Q960.65 232.29 960.65 232.29" opacity="0.54"></path></g></svg>